<?xml version="1.0" standalone="no"?>
<!DOCTYPE svg PUBLIC "-//W3C//DTD SVG 20010904//EN"
 "http://www.w3.org/TR/2001/REC-SVG-20010904/DTD/svg10.dtd">
<svg version="1.0" xmlns="http://www.w3.org/2000/svg"
 width="1600.000000pt" height="1066.000000pt" viewBox="0 0 1600.000000 1066.000000"
 preserveAspectRatio="xMidYMid meet">

<g transform="translate(0.000000,1066.000000) scale(0.100000,-0.100000)"
fill="#000000" stroke="none">
<path d="M0 5330 l0 -5330 8000 0 8000 0 0 5330 0 5330 -8000 0 -8000 0 0
-5330z m8480 3131 c0 -8 28 -11 110 -11 25 0 50 -6 55 -13 9 -11 25 -15 82
-18 14 -1 20 -6 16 -16 -5 -13 -3 -13 15 -2 19 12 24 11 37 -6 9 -11 14 -15
11 -8 -5 9 2 9 26 2 18 -6 41 -13 51 -16 16 -5 16 -6 1 -17 -13 -10 -9 -12 25
-10 23 1 44 -2 47 -7 3 -5 11 -6 17 -2 9 5 9 3 1 -8 -17 -21 -14 -48 5 -41 10
4 11 7 3 10 -17 5 -15 19 3 26 8 3 14 2 14 -2 -1 -4 0 -10 1 -14 4 -13 7 -27
9 -38 0 -5 24 -8 54 -6 28 2 42 2 30 -1 -22 -4 -23 -9 -23 -84 l0 -79 -30 0
c-28 0 -30 -2 -30 -40 0 -38 2 -40 30 -40 28 0 30 -2 30 -40 0 -38 -2 -40 -30
-40 -28 0 -30 -2 -30 -40 0 -22 -4 -40 -10 -40 -5 0 -10 -18 -10 -40 0 -22 5
-40 10 -40 6 0 10 -18 10 -40 0 -22 -4 -40 -10 -40 -6 0 -10 -33 -10 -80 l0
-80 -40 0 -40 0 0 -79 c0 -55 4 -81 13 -84 8 -3 7 -10 -7 -26 -25 -28 -36 -27
-36 4 0 14 -6 25 -12 25 -10 0 -13 -47 -15 -197 -1 -133 -5 -199 -12 -201 -7
-2 -11 -45 -11 -123 0 -99 -3 -119 -15 -119 -11 0 -15 11 -15 40 0 46 -16 52
-42 16 -22 -30 -14 -124 11 -134 8 -3 27 -18 42 -33 14 -14 32 -29 40 -32 8
-3 5 -6 -9 -6 -13 -1 -32 9 -43 22 -15 18 -20 19 -28 8 -7 -11 -9 -11 -14 0
-3 8 -6 2 -6 -12 -1 -32 -37 -51 -83 -44 -24 4 -27 3 -14 -3 18 -8 18 -9 3
-15 -22 -8 -22 -27 0 -27 9 0 14 -2 11 -5 -6 -6 -25 -10 -96 -19 -23 -3 -51
-10 -61 -16 -25 -13 -34 -13 -26 0 4 6 -1 7 -11 3 -14 -5 -13 -8 6 -18 19 -10
20 -13 6 -18 -9 -4 -31 -4 -49 -2 -25 4 -27 3 -12 -4 16 -7 10 -10 -32 -16
-32 -5 -50 -12 -46 -18 3 -6 1 -7 -5 -3 -6 4 -23 -1 -37 -10 -21 -14 -30 -15
-52 -5 -23 11 -25 10 -13 -3 11 -14 9 -16 -11 -17 -13 -1 -28 -1 -33 0 -5 1
-16 -5 -25 -12 -9 -8 -32 -17 -51 -20 -19 -2 -66 -12 -105 -22 -114 -27 -355
-76 -425 -86 -218 -31 -682 -51 -703 -30 -6 6 -26 11 -44 11 -75 0 -297 68
-402 122 -141 74 -205 129 -273 233 -84 128 -96 273 -38 456 25 77 109 238
140 269 3 3 18 24 34 48 27 40 59 77 149 172 38 40 91 88 162 145 27 22 60 50
73 63 12 12 26 22 29 22 4 0 15 7 25 17 10 9 21 14 24 10 3 -3 -21 -34 -54
-69 -62 -65 -113 -125 -147 -174 -11 -15 -27 -36 -37 -45 -9 -9 -37 -48 -62
-86 -25 -37 -49 -72 -54 -78 -4 -5 -24 -44 -44 -85 -127 -259 -113 -501 37
-645 63 -60 139 -105 154 -90 6 6 6 53 -1 130 -7 87 -7 151 2 230 14 140 37
276 55 329 7 22 19 61 25 86 7 25 20 63 30 85 10 22 28 63 39 90 45 102 110
217 158 280 13 17 27 35 31 40 81 109 242 273 358 365 36 29 181 119 228 141
25 13 46 27 46 31 0 4 6 8 14 8 7 0 45 13 83 29 235 97 398 128 676 130 97 0
177 -3 177 -8z m586 -167 c18 -14 18 -14 -6 -3 -23 11 -24 11 -11 -4 14 -18
12 -20 -13 -11 -8 3 -12 12 -9 20 7 18 15 18 39 -2z m89 -44 c3 -6 -1 -7 -9
-4 -9 3 -16 1 -16 -4 0 -6 9 -14 20 -17 11 -4 17 -11 14 -17 -5 -7 -1 -9 9 -5
11 4 17 1 17 -8 0 -9 -6 -12 -15 -9 -10 4 -18 -3 -25 -20 -16 -43 -26 -30 -24
32 1 31 2 58 3 60 3 6 20 1 26 -8z m63 -74 c-7 -8 -15 -12 -17 -11 -5 6 10 25
20 25 5 0 4 -6 -3 -14z m88 -51 c-19 -14 -19 -15 -1 -15 10 0 16 -3 12 -6 -3
-3 -16 -3 -28 1 l-22 7 24 14 c32 18 39 17 15 -1z m-51 -5 c3 -5 -1 -10 -9
-10 -9 0 -16 5 -16 10 0 6 4 10 9 10 6 0 13 -4 16 -10z m122 -37 c-4 -3 -2
-11 3 -18 7 -8 5 -12 -4 -12 -8 0 -12 7 -11 16 5 22 4 21 12 21 3 0 3 -3 0 -7z
m84 -90 c13 -16 12 -17 -3 -4 -10 7 -18 15 -18 17 0 8 8 3 21 -13z m34 -42
c-8 -7 -45 -9 -50 -1 -2 3 9 6 25 6 17 0 27 -2 25 -5z m129 -161 c-6 -6 -10
-3 -10 10 0 13 4 16 10 10 7 -7 7 -13 0 -20z m79 -95 c-7 -21 -12 -19 -10 4 0
11 5 18 9 15 4 -3 5 -11 1 -19z m68 -68 c-10 -9 -11 -8 -5 6 3 10 9 15 12 12
3 -3 0 -11 -7 -18z m-781 -207 c0 -29 -4 -40 -15 -40 -11 0 -15 11 -15 40 0
29 4 40 15 40 11 0 15 -11 15 -40z m1237 4 c-3 -3 -12 -4 -19 -1 -8 3 -5 6 6
6 11 1 17 -2 13 -5z m86 -1 c-7 -2 -19 -2 -25 0 -7 3 -2 5 12 5 14 0 19 -2 13
-5z m-136 -49 c-3 -3 -12 -4 -19 -1 -8 3 -5 6 6 6 11 1 17 -2 13 -5z m-240
-156 c-3 -8 -6 -5 -6 6 -1 11 2 17 5 13 3 -3 4 -12 1 -19z m-91 -97 c-13 -12
-18 -13 -28 -2 -11 10 -9 11 6 5 12 -5 17 -4 13 3 -3 5 1 10 9 10 13 0 13 -2
0 -16z m-936 -101 c0 -29 -4 -40 -15 -40 -11 0 -15 11 -15 40 0 29 4 40 15 40
11 0 15 -11 15 -40z m880 36 c0 -2 -7 -7 -16 -10 -8 -3 -12 -2 -9 4 6 10 25
14 25 6z m-74 -32 c1 -9 0 -13 -4 -10 -3 4 -7 14 -8 22 -1 9 0 13 4 10 3 -4 7
-14 8 -22z m-141 -64 c3 -6 -1 -7 -9 -4 -18 7 -21 14 -7 14 6 0 13 -4 16 -10z
m55 0 c0 -5 -5 -10 -11 -10 -5 0 -7 5 -4 10 3 6 8 10 11 10 2 0 4 -4 4 -10z
m-80 -45 c0 -2 -6 -5 -13 -8 -8 -3 -14 1 -14 8 0 7 6 11 14 8 7 -3 13 -6 13
-8z m-225 -123 c-3 -3 -11 0 -18 7 -9 10 -8 11 6 5 10 -3 15 -9 12 -12z m-100
-20 c-3 -3 -11 0 -18 7 -9 10 -8 11 6 5 10 -3 15 -9 12 -12z m-115 -52 c18
-12 2 -12 -25 0 -13 6 -15 9 -5 9 8 0 22 -4 30 -9z m-40 -44 c0 -2 -7 -7 -16
-10 -8 -3 -12 -2 -9 4 6 10 25 14 25 6z m-235 -37 c-7 -10 -35 -1 -35 11 0 5
9 6 20 3 11 -3 17 -9 15 -14z m75 11 c0 -5 -8 -10 -17 -10 -15 0 -16 2 -3 10
19 12 20 12 20 0z m83 -3 c4 3 7 1 7 -5 0 -17 -16 -15 -31 6 -12 15 -12 16 2
5 9 -7 19 -10 22 -6z m-126 -23 c-3 -3 -12 -4 -19 -1 -8 3 -5 6 6 6 11 1 17
-2 13 -5z m53 2 c0 -2 -9 -6 -20 -9 -11 -3 -18 -1 -14 4 5 9 34 13 34 5z
m-166 -66 c-6 -6 -19 -12 -30 -14 -10 -2 -32 -7 -49 -10 -28 -6 -28 -6 -6 4
14 6 33 12 43 13 9 2 21 6 24 10 4 4 12 7 18 7 7 0 7 -3 0 -10z m31 0 c3 -5 1
-10 -4 -10 -6 0 -11 5 -11 10 0 6 2 10 4 10 3 0 8 -4 11 -10z m-219 -82 c4 -7
4 -10 -1 -6 -4 4 -16 3 -27 -3 -11 -6 -22 -8 -25 -5 -5 4 16 16 44 25 1 1 5
-5 9 -11z m-2406 -140 c0 -5 6 -8 14 -8 8 0 16 -4 18 -9 5 -14 119 -87 174
-111 27 -12 57 -26 67 -31 29 -16 117 -45 202 -68 148 -41 298 -59 495 -60
101 -1 195 -4 207 -7 13 -4 23 -2 23 4 0 7 34 11 89 11 49 0 98 4 108 10 11 5
25 6 33 1 7 -4 28 -6 47 -4 112 14 109 14 89 2 -11 -6 -39 -10 -64 -9 -24 0
-41 -3 -38 -8 3 -5 -8 -14 -26 -20 -38 -13 -41 -14 -33 -1 11 17 -13 11 -32
-9 -16 -16 -72 -30 -144 -36 -14 -1 -31 -5 -37 -9 -22 -13 -354 -19 -442 -7
-153 20 -194 28 -265 51 -148 46 -260 103 -365 184 -96 74 -207 195 -140 154
11 -7 20 -16 20 -20z m1787 -184 c-3 -3 -12 -4 -19 -1 -8 3 -5 6 6 6 11 1 17
-2 13 -5z m-163 -50 c-18 -14 -18 -15 6 -9 21 5 22 4 8 -5 -13 -8 -24 -7 -45
5 -16 9 -20 14 -10 11 9 -3 17 -1 17 4 0 6 10 10 22 10 21 0 21 0 2 -16z
m-141 -21 c-7 -2 -21 -2 -30 0 -10 3 -4 5 12 5 17 0 24 -2 18 -5z m1787 -683
c0 -5 -5 -10 -11 -10 -5 0 -7 5 -4 10 3 6 8 10 11 10 2 0 4 -4 4 -10z m-3400
-304 c0 -2 -7 -7 -16 -10 -8 -3 -12 -2 -9 4 6 10 25 14 25 6z m1167 -12 c-3
-3 -12 -4 -19 -1 -8 3 -5 6 6 6 11 1 17 -2 13 -5z m-940 -60 c-3 -3 -12 -4
-19 -1 -8 3 -5 6 6 6 11 1 17 -2 13 -5z m666 -1 c-7 -2 -19 -2 -25 0 -7 3 -2
5 12 5 14 0 19 -2 13 -5z m974 1 c-3 -3 -12 -4 -19 -1 -8 3 -5 6 6 6 11 1 17
-2 13 -5z m-1294 -31 c-23 -2 -64 -2 -90 0 -26 2 -7 3 42 3 50 0 71 -1 48 -3z
m1854 1 c-3 -3 -12 -4 -19 -1 -8 3 -5 6 6 6 11 1 17 -2 13 -5z m-1904 -51 c-7
-2 -19 -2 -25 0 -7 3 -2 5 12 5 14 0 19 -2 13 -5z m834 -19 c-3 -3 -12 -4 -19
-1 -8 3 -5 6 6 6 11 1 17 -2 13 -5z m-754 -21 c-7 -2 -19 -2 -25 0 -7 3 -2 5
12 5 14 0 19 -2 13 -5z m590 0 c-7 -2 -21 -2 -30 0 -10 3 -4 5 12 5 17 0 24
-2 18 -5z m-445 -10 c-10 -2 -26 -2 -35 0 -10 3 -2 5 17 5 19 0 27 -2 18 -5z
m259 1 c-3 -3 -12 -4 -19 -1 -8 3 -5 6 6 6 11 1 17 -2 13 -5z"/>
<path d="M8750 8380 c-13 -8 -13 -10 2 -10 9 0 20 5 23 10 8 13 -5 13 -25 0z"/>
<path d="M8838 8363 c6 -2 18 -2 25 0 6 3 1 5 -13 5 -14 0 -19 -2 -12 -5z"/>
<path d="M8930 7660 c0 -29 4 -40 15 -40 11 0 15 11 15 40 0 29 -4 40 -15 40
-11 0 -15 -11 -15 -40z"/>
<path d="M8770 6980 c0 -64 3 -80 15 -80 12 0 15 16 15 80 0 64 -3 80 -15 80
-12 0 -15 -16 -15 -80z"/>
<path d="M8670 6620 c-26 -6 -41 -40 -18 -40 13 0 53 39 46 44 -2 2 -14 0 -28
-4z"/>
<path d="M8418 6463 c7 -3 16 -2 19 1 4 3 -2 6 -13 5 -11 0 -14 -3 -6 -6z"/>
<path d="M9138 8193 c7 -3 16 -2 19 1 4 3 -2 6 -13 5 -11 0 -14 -3 -6 -6z"/>
</g>
</svg>
